<svg xmlns="http://www.w3.org/2000/svg" width="950" height="548" viewBox="0 0 950 548">
  <defs>
    <marker id="arrow" markerWidth="10" markerHeight="10" refX="9" refY="3" orient="auto">
      <path d="M0,0 L10,3 L0,6 Z" fill="#64748b" />
    </marker>
  </defs>
  <rect width="100%" height="100%" fill="#f8fafc"/>
  <text x="475.0" y="24" text-anchor="middle" font-family="Segoe UI, Arial" font-size="20" font-weight="700" fill="#0f172a">Retail Demand Revenue Intelligence</text>
  <path d="M 270 127.0 C 310.0 127.0, 310.0 139.0, 350 139.0" stroke="#64748b" stroke-width="2.5" fill="none" marker-end="url(#arrow)"/>
<rect x="262.0" y="121.0" width="96" height="20" rx="8" fill="#eff6ff" stroke="#bfdbfe"/><text x="310.0" y="135.0" text-anchor="middle" font-family="Segoe UI, Arial" font-size="11" fill="#1d4ed8">1-to-many</text><path d="M 270 127.0 C 465.0 127.0, 465.0 103.0, 660 103.0" stroke="#64748b" stroke-width="2.5" fill="none" marker-end="url(#arrow)"/>
<rect x="417.0" y="103.0" width="96" height="20" rx="8" fill="#eff6ff" stroke="#bfdbfe"/><text x="465.0" y="117.0" text-anchor="middle" font-family="Segoe UI, Arial" font-size="11" fill="#1d4ed8">1-to-many</text><path d="M 465.0 290 C 465.0 290, 465.0 238, 465.0 238" stroke="#64748b" stroke-width="2.5" fill="none" marker-end="url(#arrow)"/>
<rect x="417.0" y="252.0" width="96" height="20" rx="8" fill="#eff6ff" stroke="#bfdbfe"/><text x="465.0" y="266.0" text-anchor="middle" font-family="Segoe UI, Arial" font-size="11" fill="#1d4ed8">date-based</text><path d="M 660 341.0 C 620.0 341.0, 620.0 139.0, 580 139.0" stroke="#64748b" stroke-width="2.5" fill="none" marker-end="url(#arrow)"/>
<rect x="572.0" y="228.0" width="96" height="20" rx="8" fill="#eff6ff" stroke="#bfdbfe"/><text x="620.0" y="242.0" text-anchor="middle" font-family="Segoe UI, Arial" font-size="11" fill="#1d4ed8">date-based</text>
  <rect x="40" y="40" width="230" height="174" rx="12" fill="#ffffff" stroke="#1f2937" stroke-width="2"/>
<rect x="40" y="40" width="230" height="34" rx="12" fill="#1f4e79" stroke="#1f2937" stroke-width="2"/>
<text x="155.0" y="62" text-anchor="middle" font-family="Segoe UI, Arial" font-size="16" font-weight="700" fill="#ffffff">stores</text>
<text x="54" y="94" font-family="Segoe UI, Arial" font-size="13" fill="#111827">PK store_nbr</text>
<text x="54" y="118" font-family="Segoe UI, Arial" font-size="13" fill="#111827">city</text>
<text x="54" y="142" font-family="Segoe UI, Arial" font-size="13" fill="#111827">state</text>
<text x="54" y="166" font-family="Segoe UI, Arial" font-size="13" fill="#111827">type</text>
<text x="54" y="190" font-family="Segoe UI, Arial" font-size="13" fill="#111827">cluster</text><rect x="350" y="40" width="230" height="198" rx="12" fill="#ffffff" stroke="#1f2937" stroke-width="2"/>
<rect x="350" y="40" width="230" height="34" rx="12" fill="#1f4e79" stroke="#1f2937" stroke-width="2"/>
<text x="465.0" y="62" text-anchor="middle" font-family="Segoe UI, Arial" font-size="16" font-weight="700" fill="#ffffff">train</text>
<text x="364" y="94" font-family="Segoe UI, Arial" font-size="13" fill="#111827">PK id</text>
<text x="364" y="118" font-family="Segoe UI, Arial" font-size="13" fill="#111827">date</text>
<text x="364" y="142" font-family="Segoe UI, Arial" font-size="13" fill="#111827">FK store_nbr</text>
<text x="364" y="166" font-family="Segoe UI, Arial" font-size="13" fill="#111827">family</text>
<text x="364" y="190" font-family="Segoe UI, Arial" font-size="13" fill="#111827">sales</text>
<text x="364" y="214" font-family="Segoe UI, Arial" font-size="13" fill="#111827">onpromotion</text><rect x="660" y="40" width="230" height="126" rx="12" fill="#ffffff" stroke="#1f2937" stroke-width="2"/>
<rect x="660" y="40" width="230" height="34" rx="12" fill="#1f4e79" stroke="#1f2937" stroke-width="2"/>
<text x="775.0" y="62" text-anchor="middle" font-family="Segoe UI, Arial" font-size="16" font-weight="700" fill="#ffffff">transactions</text>
<text x="674" y="94" font-family="Segoe UI, Arial" font-size="13" fill="#111827">PK date</text>
<text x="674" y="118" font-family="Segoe UI, Arial" font-size="13" fill="#111827">PK/FK store_nbr</text>
<text x="674" y="142" font-family="Segoe UI, Arial" font-size="13" fill="#111827">transactions</text><rect x="350" y="290" width="230" height="198" rx="12" fill="#ffffff" stroke="#1f2937" stroke-width="2"/>
<rect x="350" y="290" width="230" height="34" rx="12" fill="#1f4e79" stroke="#1f2937" stroke-width="2"/>
<text x="465.0" y="312" text-anchor="middle" font-family="Segoe UI, Arial" font-size="16" font-weight="700" fill="#ffffff">holidays_events</text>
<text x="364" y="344" font-family="Segoe UI, Arial" font-size="13" fill="#111827">date</text>
<text x="364" y="368" font-family="Segoe UI, Arial" font-size="13" fill="#111827">type</text>
<text x="364" y="392" font-family="Segoe UI, Arial" font-size="13" fill="#111827">locale</text>
<text x="364" y="416" font-family="Segoe UI, Arial" font-size="13" fill="#111827">locale_name</text>
<text x="364" y="440" font-family="Segoe UI, Arial" font-size="13" fill="#111827">description</text>
<text x="364" y="464" font-family="Segoe UI, Arial" font-size="13" fill="#111827">transferred</text><rect x="660" y="290" width="230" height="102" rx="12" fill="#ffffff" stroke="#1f2937" stroke-width="2"/>
<rect x="660" y="290" width="230" height="34" rx="12" fill="#1f4e79" stroke="#1f2937" stroke-width="2"/>
<text x="775.0" y="312" text-anchor="middle" font-family="Segoe UI, Arial" font-size="16" font-weight="700" fill="#ffffff">oil</text>
<text x="674" y="344" font-family="Segoe UI, Arial" font-size="13" fill="#111827">PK date</text>
<text x="674" y="368" font-family="Segoe UI, Arial" font-size="13" fill="#111827">dcoilwtico</text>
</svg>
